<svg
   class="bullgit" xmlns="http://www.w3.org/2000/svg" x="0px" y="0px" width="561.321px" height="562.627px" viewBox="20.249 18.977 561.321 562.627" enable-background="new 20.249 18.977 561.321 562.627"
   xml:space="preserve" stroke="#000000" stroke-width="1.629">
<path class="nose" stroke="inherit" stroke-width="inherit" d="
  M203.727,480.078c2.713-16.838,31.478-26.248,47.349-20.857c36.09,12.258,80.817,14.025,111.291,1.629
  c16.27-6.618,46.629,6.25,50.121,25.199c5.509,29.901-1.847,46.911-10.909,62.209c-4.398,7.426-77.699-5.081-94.089-5.059
  c-15.965,0.023-87.706,13.996-93.005,4.192C204.965,529.782,197.677,517.629,203.727,480.078z"/>
<path class="shit" stroke="inherit" stroke-width="inherit" d="
  M332.311,20.56C250.765,61.764,152.1,176.132,270.98,216.458c-2.842-1.073-59.517-3.177-65.165-54.165
  c-100.396,14.777-89.617,148.402-61.105,170.128c-18.451-17.134-29.814-34.14-30.271-58.178
  c-86.353,125.15-13.511,186.03,83.866,193.415c8.241-15.344,37.606-23.045,53.382-17.621c32.325,11.114,76.566,15.505,109.508,1.372
  c18.963-8.137,53.046,8.941,57.617,22.609c111.87-24.938,163.267-99.481,73.34-210.878c-4.887,40.028-36.059,60.271-44.395,68.154
  C584.337,172.169,287.388,169.912,332.311,20.56z"/>
<path class="horn horn--left" stroke="inherit" stroke-width="inherit" d="
  M163.593,51.085C-31.21,73.302-5.29,220.82,115.577,246.632c2.458-23.272,14.011-46.847,23.209-57.353
  C1.961,148.605,96.737,89.853,163.593,51.085z"/>
<path class="chin" stroke="inherit" stroke-width="inherit" d="
  M232.935,560.17c40.806-1.995,56.545-8.152,74.252-8.077c13.8,0.058,45.789,6.855,78.81,7.878
  c-4.058,6.416-7.341,12.438-13.673,15.638c-13.279,6.709-109.569,6.633-123.317,1.323
  C241.529,574.043,236.861,565.321,232.935,560.17L232.935,560.17z"/>
<path class="horn horn--right" stroke="inherit" stroke-width="inherit" d="
  M428.595,47.566c222.534,24.864,162.918,163.763,60.93,185.506c-9.076-22.949-26.966-41.285-40.847-51.846
  C610.92,141.896,509.336,86.641,428.595,47.566L428.595,47.566z"/>
</svg>
