<?xml version="1.0" encoding="UTF-8" standalone="no"?>
<!-- Created with Inkscape (http://www.inkscape.org/) -->

<svg
   xmlns:dc="http://purl.org/dc/elements/1.1/"
   xmlns:cc="http://creativecommons.org/ns#"
   xmlns:rdf="http://www.w3.org/1999/02/22-rdf-syntax-ns#"
   xmlns:svg="http://www.w3.org/2000/svg"
   xmlns="http://www.w3.org/2000/svg"
   xmlns:sodipodi="http://sodipodi.sourceforge.net/DTD/sodipodi-0.dtd"
   xmlns:inkscape="http://www.inkscape.org/namespaces/inkscape"
   width="744.09448819"
   height="1052.3622047"
   id="svg2"
   version="1.1"
   inkscape:version="0.48.4 r9939"
   sodipodi:docname="bullgit.svg">
  <defs
     id="defs4">
    <inkscape:perspective
       sodipodi:type="inkscape:persp3d"
       inkscape:vp_x="16.155374 : 617.73472 : 1"
       inkscape:vp_y="0 : 592.47097 : 0"
       inkscape:vp_z="545.07166 : 636.924 : 1"
       inkscape:persp3d-origin="392.71321 : 440.38855 : 1"
       id="perspective2985" />
    <clipPath
       clipPathUnits="userSpaceOnUse"
       id="clipPath4420">
      <rect
         style="fill:#ff0000;stroke:none"
         id="rect4422"
         width="215.73047"
         height="276.33963"
         x="436.2598"
         y="326.51697" />
    </clipPath>
  </defs>
  <sodipodi:namedview
     id="base"
     pagecolor="#ffffff"
     bordercolor="#666666"
     borderopacity="1.0"
     inkscape:pageopacity="0.0"
     inkscape:pageshadow="2"
     inkscape:zoom="0.49497475"
     inkscape:cx="498.43511"
     inkscape:cy="455.16773"
     inkscape:document-units="px"
     inkscape:current-layer="layer1"
     showgrid="false"
     showguides="true"
     inkscape:guide-bbox="true"
     inkscape:window-width="1309"
     inkscape:window-height="744"
     inkscape:window-x="1337"
     inkscape:window-y="130"
     inkscape:window-maximized="1" />
  <metadata
     id="metadata7">
    <rdf:RDF>
      <cc:Work
         rdf:about="">
        <dc:format>image/svg+xml</dc:format>
        <dc:type
           rdf:resource="http://purl.org/dc/dcmitype/StillImage" />
      </cc:Work>
    </rdf:RDF>
  </metadata>
  <g
     inkscape:label="Layer 1"
     inkscape:groupmode="layer"
     id="layer1">
    <rect
       style="fill:#000000;fill-opacity:1;stroke:none"
       id="rect4430"
       width="230.71428"
       height="233.57143"
       x="27.531527"
       y="94.557915" />
    <path
       style="fill:#000000;stroke:#7ec8c8;stroke-width:0.69340587px;stroke-linecap:butt;stroke-linejoin:miter;stroke-opacity:0"
       d="m 604.22341,113.04152 c -14.42809,-0.6445 -17.51849,14.52823 -41.1153,15.07008 -15.99514,-3.19793 -29.20888,-8.41096 -13.37281,-34.670289 -43.45572,22.633549 -5.10453,53.231679 -0.61912,49.281339 l -21.29746,12.25843 c 8.3363,6.9715 17.60848,11.29137 31.82237,1.60969 l -9.65815,25.50743 c 11.89576,10.47133 24.27454,12.68894 33.18442,44.57609 -11.61463,17.25928 -4.59422,42.82694 20.80218,44.32844 20.35717,-1.13516 37.4608,-18.45131 22.04039,-45.56667 3.43514,-16.08646 12.74634,-31.49099 33.30824,-42.9664 l -10.02961,-26.12654 c 8.22562,3.15474 12.19093,12.31762 32.44148,-1.48587 L 661.6708,143.21794 c 21.36889,-11.24803 26.49091,-36.11201 -1.23822,-49.281343 13.51848,23.609903 5.23553,33.229233 -17.33514,33.679713 -15.39004,0.69556 -21.82664,-13.60704 -38.87403,-14.57479 z"
       id="path3808"
       inkscape:connector-curvature="0"
       sodipodi:nodetypes="ccccccccccccccccc" />
    <flowRoot
       xml:space="preserve"
       id="flowRoot3001"
       style="font-size:40px;font-style:normal;font-weight:normal;line-height:125%;letter-spacing:0px;word-spacing:0px;fill:#000000;fill-opacity:1;stroke:none;font-family:Sans"
       transform="matrix(1.3130997,0,0,1.3130997,401.72187,-10.810348)"><flowRegion
         id="flowRegion3003"><rect
           id="rect3005"
           width="227.85715"
           height="70"
           x="92.14286"
           y="211.6479" /></flowRegion><flowPara
         id="flowPara3007"
         style="font-style:normal;font-variant:normal;font-weight:500;font-stretch:normal;font-family:Ubuntu;-inkscape-font-specification:Ubuntu Medium"><flowSpan
   style="font-style:normal;font-variant:normal;font-weight:500;font-stretch:normal;fill:#1393d5;fill-opacity:1;font-family:Ubuntu;-inkscape-font-specification:Ubuntu Medium"
   id="flowSpan3009">bull</flowSpan>git</flowPara></flowRoot>    <path
       style="fill:#000000;stroke:#7ec8c8;stroke-width:0.58884221px;stroke-linecap:butt;stroke-linejoin:miter;stroke-opacity:0"
       d="m 138.94769,441.86703 c -12.25238,-0.54731 -14.87675,12.33742 -34.91522,12.79756 -13.583129,-2.7157 -24.804279,-7.14262 -11.356229,-29.44212 -36.90273,19.22048 -4.33477,45.20449 -0.52577,41.84986 l -18.08587,10.40989 c 7.07922,5.92023 14.95318,9.58868 27.023659,1.36695 l -8.201729,21.66099 c 10.101929,8.89228 20.614009,10.77548 28.180319,37.85415 -9.86319,14.65663 -3.90143,36.36876 17.66526,37.64383 17.28737,-0.96398 31.81182,-15.66889 18.71677,-38.69535 2.91712,-13.66065 10.82422,-26.74223 28.28545,-36.48718 l -8.51719,-22.18673 c 6.98523,2.67902 10.3526,10.46015 27.54939,-1.2618 l -17.03434,-9.88416 c 18.14652,-9.55184 22.49617,-30.66639 -1.0515,-41.84984 11.47994,20.0496 4.44603,28.21835 -14.72105,28.60089 -13.06927,0.59068 -18.53526,-11.55513 -33.01195,-12.37694 z"
       id="path3808-2"
       inkscape:connector-curvature="0"
       sodipodi:nodetypes="ccccccccccccccccc" />
    <flowRoot
       xml:space="preserve"
       id="flowRoot3001-5"
       style="font-size:40px;font-style:normal;font-weight:normal;line-height:125%;letter-spacing:0px;word-spacing:0px;fill:#000000;fill-opacity:1;stroke:none;font-family:Sans"
       transform="matrix(3.6275943,0,0,3.6275943,-124.16683,-360.27676)"><flowRegion
         id="flowRegion3003-0"><rect
           id="rect3005-7"
           width="133.68123"
           height="62.755684"
           x="92.14286"
           y="211.6479" /></flowRegion><flowPara
         id="flowPara3007-2"
         style="font-size:39.71902847px;font-style:normal;font-variant:normal;font-weight:normal;font-stretch:normal;font-family:Ubuntu;-inkscape-font-specification:Ubuntu"><flowSpan
           style="font-size:39.71902847px;font-style:normal;font-variant:normal;font-weight:normal;font-stretch:normal;fill:#1393d5;fill-opacity:1;font-family:Ubuntu;-inkscape-font-specification:Ubuntu"
           id="flowSpan3009-3">bull</flowSpan><flowSpan
           style="font-weight:500;-inkscape-font-specification:Ubuntu Medium"
           id="flowSpan4249">git</flowSpan></flowPara></flowRoot>    <flowRoot
       xml:space="preserve"
       id="flowRoot3945"
       style="font-size:40px;font-style:normal;font-weight:normal;line-height:125%;letter-spacing:0px;word-spacing:0px;fill:#000000;fill-opacity:1;stroke:none;font-family:Sans"><flowRegion
         id="flowRegion3947"><rect
           id="rect3949"
           width="121.97592"
           height="40.911179"
           x="78.53936"
           y="294.24271" /></flowRegion><flowPara
         id="flowPara3951">De</flowPara></flowRoot>    <flowRoot
       xml:space="preserve"
       id="flowRoot3001-7-7"
       style="font-size:40px;font-style:normal;font-weight:normal;line-height:125%;letter-spacing:0px;word-spacing:0px;fill:#000000;fill-opacity:1;stroke:none;font-family:Sans"
       transform="matrix(1.1923114,0,0,1.1923114,-7.2144948,-26.174375)"><flowRegion
         id="flowRegion3003-9-7"><rect
           id="rect3005-8-3"
           width="227.85715"
           height="70"
           x="92.14286"
           y="211.6479" /></flowRegion><flowPara
         id="flowPara3007-7-3"
         style="font-style:normal;font-variant:normal;font-weight:500;font-stretch:normal;font-family:Ubuntu;-inkscape-font-specification:Ubuntu Medium"><flowSpan
           style="font-style:normal;font-variant:normal;font-weight:500;font-stretch:normal;fill:#1393d5;fill-opacity:1;font-family:Ubuntu;-inkscape-font-specification:Ubuntu Medium"
           id="flowSpan3009-8-0">bull</flowSpan><flowSpan
           style="fill:#ffffff"
           id="flowSpan4017-2">git</flowSpan></flowPara></flowRoot>    <path
       style="fill:#ffffff;fill-opacity:1;stroke:none"
       d="m 456.18843,374.85954 c -19.4582,-0.86918 -23.626,19.59322 -55.44939,20.32398 -21.57155,-4.31283 -39.39202,-11.34328 -18.035,-46.75746 -58.60577,30.52433 -6.88412,71.78993 -0.83495,66.46238 l -28.72245,16.53212 c 11.24262,9.40198 23.74738,15.2279 42.91668,2.17089 l -13.02531,34.4001 c 16.04301,14.12196 32.73741,17.11273 44.75356,60.11671 -15.66385,23.27643 -6.19588,57.75779 28.05446,59.78274 27.45432,-1.53091 50.5208,-24.88401 29.72436,-61.45265 4.63273,-21.6947 17.19011,-42.46973 44.92054,-57.94583 l -13.52625,-35.23506 c 11.09333,4.25459 16.44106,16.6119 43.7516,-2.0039 l -27.05252,-15.69715 c 28.81875,-15.16944 35.72646,-48.7018 -1.66991,-66.46236 18.23144,31.84104 7.06081,44.81397 -23.37872,45.4215 -20.75548,0.93805 -29.43606,-18.35086 -52.4267,-19.65601 z"
       id="path3808-0-9-5"
       inkscape:connector-curvature="0"
       sodipodi:nodetypes="ccccccccccccccccc"
       clip-path="url(#clipPath4420)"
       transform="matrix(0.89814256,0,0,0.89814256,-356.67501,-209.49462)" />
    <flowRoot
       xml:space="preserve"
       id="flowRoot3001-76"
       style="font-size:40px;font-style:normal;font-weight:normal;line-height:125%;letter-spacing:0px;word-spacing:0px;fill:#000000;fill-opacity:1;stroke:none;font-family:Sans"
       transform="matrix(4.4221924,0,0,4.4221924,-321.74992,-244.43024)"><flowRegion
         id="flowRegion3003-6"><rect
           id="rect3005-6"
           width="227.85715"
           height="70"
           x="92.14286"
           y="211.6479" /></flowRegion><flowPara
         id="flowPara3007-6"
         style="font-style:normal;font-variant:normal;font-weight:500;font-stretch:normal;font-family:Ubuntu;-inkscape-font-specification:Ubuntu Medium"><flowSpan
   style="font-style:normal;font-variant:normal;font-weight:500;font-stretch:normal;fill:#1393d5;fill-opacity:1;font-family:Ubuntu;-inkscape-font-specification:Ubuntu Medium"
   id="flowSpan3009-34">bull</flowSpan>git</flowPara></flowRoot>    <path
       style="fill:#000000;stroke:#7ec8c8;stroke-width:0.34953058px;stroke-linecap:butt;stroke-linejoin:miter;stroke-opacity:0"
       d="m 526.90711,685.10454 c -7.27288,-0.32491 -8.83069,7.32336 -20.72531,7.59648 -8.06279,-1.61201 -14.72357,-4.23978 -6.74094,-17.47654 -21.90509,11.40907 -2.57307,26.83293 -0.31209,24.84165 l -10.7356,6.1792 c 4.20216,3.51418 8.87607,5.69174 16.04097,0.8114 l -4.86845,12.85774 c 5.9964,5.27836 12.23627,6.39622 16.72754,22.46983 -5.8547,8.70004 -2.31585,21.58812 10.48591,22.34499 10.2616,-0.57219 18.88315,-9.30089 11.11008,-22.96916 1.73156,-8.10881 6.42513,-15.87391 16.78994,-21.65842 l -5.05572,-13.1698 c 4.1464,1.59024 6.14521,6.20904 16.35305,-0.74901 l -10.11141,-5.86711 c 10.77159,-5.66988 13.35349,-18.20327 -0.62417,-24.84162 6.81438,11.90121 2.63912,16.75012 -8.73826,16.97719 -7.75778,0.35061 -11.00234,-6.85902 -19.59554,-7.34682 z"
       id="path3808-2-4"
       inkscape:connector-curvature="0"
       sodipodi:nodetypes="ccccccccccccccccc" />
    <path
       sodipodi:type="arc"
       style="fill:#000000;fill-opacity:1;stroke:none"
       id="path4275"
       sodipodi:cx="368.70569"
       sodipodi:cy="602.8443"
       sodipodi:rx="17.172594"
       sodipodi:ry="17.172594"
       d="m 385.87828,602.8443 a 17.172594,17.172594 0 1 1 -34.34519,0 17.172594,17.172594 0 1 1 34.34519,0 z"
       transform="matrix(1.0980971,-0.21267903,-0.15447224,0.98514088,-229.93409,-314.32522)"
       inkscape:transform-center-x="-4.4799208"
       inkscape:transform-center-y="-4.4445275" />
  </g>
</svg>
