<?xml version="1.0" encoding="utf-8"?>
<!-- Generator: Adobe Illustrator 16.0.0, SVG Export Plug-In . SVG Version: 6.00 Build 0)  -->
<!DOCTYPE svg PUBLIC "-//W3C//DTD SVG 1.1//EN" "http://www.w3.org/Graphics/SVG/1.1/DTD/svg11.dtd">
<svg version="1.1" xmlns="http://www.w3.org/2000/svg" xmlns:xlink="http://www.w3.org/1999/xlink" x="0px" y="0px" width="750px"
	 height="750px" viewBox="0 0 750 750" enable-background="new 0 0 750 750" xml:space="preserve">
<symbol  id="bullgit" viewBox="-249.175 -278.28 498.351 556.56">
	<path d="M66.342,62.595c73.723-44.233,60.748-72.84,86.699-73.724c25.949-0.884,35.385,61.633,69.297,86.109
		c12.035,8.686,26.838,9.435,26.838,9.435s-16.627-29.803-15.389-50.548c1.652-27.682,10.357-75.438-32.385-101.32
		c-40.666-24.625-51.715-22.688-51.715-22.688s6.783-11.99,25.871-36.958c36.139-47.273,38.453-51.76,36.557-57.069
		c52.553-32.149,22.588-134.368-69.051-76.908c-23.281-12.879-49.109-13.464-89.168,10.782C5-220.698-9.712-195.54-63.645-187.57
		c-32.169,4.754-61.768,19.123-78.069,44.735c-16.506,25.935-17.862,45.397-17.862,45.397s-49.424-9.801-75.374-6.852
		s-11.578,21.016,5.013,42.17c25.494,32.507,79.947,57.674,79.947,57.674s-64.651,18.215-72.495,60.92
		c-8.213,44.717,15.991,84.657,54.054,105.798c46.186,25.653,81.47,36.262,111.974,62.408c24.073,20.634,33.99,39.655,40.962,53.599
		c8.469-12.263,24.402-49.678-42.706-112.864c-19.435-18.299-49.069-42.006-49.242-54.907c-0.137-10.247,8.308-19.773,37.72-25.284
		c16.73,4.664,27.743,5.783,44.353,5.383C9.225,89.775,46.393,74.565,66.342,62.595z"/>
	<path fill="#FFFFFF" d="M-110.313-15.231c36.545-9.302-1.38-19.718-16.001-19.718c-10.181-10.279-32.58-34.15-59.472-41.343
		s-38.774-2.189-38.774-2.189s14.692,21.932,33.534,37.218s55.935,32.808,55.935,32.808S-123.595-11.85-110.313-15.231z"/>
	<path fill="#FFFFFF" d="M1.06-30.394C-4.352-39.6-5.988-45.708-3.864-55.76C-0.739-70.554,7.58-81.385,26.301-83.997
		c11.014-1.537,18.201-0.999,25.635,3.726C38.678-64.048,19.945-43.439,1.06-30.394z"/>
	<path fill="#FFFFFF" d="M211.455-213.002c0.104-2.148,0.027-8.68-1.791-13.112c-1.576-3.834-4.145-7.207-7.406-9.764
		c-1.861-1.459-3.928-2.646-6.123-3.531c-0.906-0.364-1.828-0.679-2.766-0.943c0.115,0.033-4.602-0.917-2.281-0.564
		c-15.463-2.343-29.15,5.52-38.096,17.848c0.033-0.096,0.061-0.19,0.084-0.288c-1.992,3.686-3.732,7.249-4.992,11.25
		c-0.68,2.954-3.408,7.996-7.104,4.876c-4.496-3.796-3.455-14.47-2.268-19.604c5.557-22.56,27.32-37.003,49.736-38.514
		c16.963-1.144,34.857,8.129,40.545,24.722c5.83,17.008-2.615,35.735-17.051,45.427c-1.211,0.813-3.322,2.588-4.893,2.227
		c-1.531-0.354-2.279-2.277-1.451-3.594C206.166-197.617,211.162-206.881,211.455-213.002z"/>
	<path fill="#FFFFFF" d="M-15.929,260.415c-12.464-25.205-40.179-59.24-113.415-89.396c-18.82-7.75-36.916-17.944-51.759-31.958
		c-32.511-30.697-33.5-56.275-31.386-75.139c0.53-4.728,2.075-9.084,4.255-13.077c-0.708,2.417-1.208,4.881-1.452,7.347
		c-3.034,30.773,10.716,73.035,115.081,120.693c9.528,4.351,17.635,7.918,31.198,16.986
		C-99.043,168.688-167.02,133.8-158.709,79.185c3.295-21.655,49.434-40.131,69.172-48.438c4.068,11.742,7.031,22.924,7.362,27.698
		c0.559,8.05-1.268,15.747-9.181,19.505c-18.108,6.849-25.707,11.947-29.427,21.396c-12.54,31.85,49.292,61.356,70.39,86.743
		C-17.427,225.757-12.44,244.651-15.929,260.415z"/>
	<path fill="#FFFFFF" d="M235.135,72.361c-38.816-16.484-40.453-74.065-67.813-91.895c-11.645-7.589-16.807-7.516-33.803-1.048
		c0-6.094,6.619-12.267,18.424-13.418c55.508-5.414,61.227,47.013,61.227,47.013s2.295-25.458-5.963-55.275
		c11.24,9.174,20.758,35.093,19.07,57.742C225.279,28.864,220.365,49.848,235.135,72.361z"/>
	<path fill="#FFFFFF" d="M123.467-69.412c-6.711,10.677,7.578,25.702,7.578,25.702s-8.629,54.032-52.756,83.239
		C17.279,79.912-37.336,77.297-37.336,77.297s16.301-21.783,20.432-35.993c2.769-9.527,0.97-22.535-1.977-32.622
		C-7.851,3.784,23.662-8.892,58.799-54.399c23.58-30.54,79.828-90.232,96.002-109.055c10.939,4.32,23.035,5.549,35.416,3.951
		C168.557-131.38,131.604-82.354,123.467-69.412z"/>
	<path fill="#FFFFFF" d="M175.496-165.659c-59.25-8.502-56.982-46.767-47.482-49.253c-0.648,0.17,0.086,6.268,0.184,6.904
		c0.355,2.327,0.973,4.616,2.191,6.648c2.039,3.397,5.277,5.609,9.002,6.805c4.549,1.461,10.441,2.426,12.412-3.194
		c1.604-4.568,0.209-10.084,4.969-13.074c6.354-3.992,15.48-4.771,22.574-2.604c7.416,2.267,15.273,6.924,16.047,15.392
		c0.27,2.956-0.938,7.473,0.707,10.112c2.742,4.396,5.717,5.846,9.375,6.444C204.809-180.691,201.486-161.93,175.496-165.659z"/>
	<path d="M63.791-7.337c-21.582,0-42.59,2.48-63.548,7.591c-20.587,5.021-41.937,11.934-59.074,24.825
		c-15.555,11.701-25.025,29.012-20.02,48.712c3.882,15.281,16.683,25.219,31.816,28.012c1.896,0.35,3.813,0.591,5.738,0.712
		c2.164,0.137,1.565,2.589,2.014,4.497c0.766,3.258,2.234,6.348,4.406,8.906c7.78,9.169,21.646,9.38,32.593,8.06
		c-0.307,9.45,7.105,17.394,16.577,17.164c-1.133,8.519,1.355,18.421,7.564,24.602c5.402,5.377,13.043,7.76,20.422,8.778
		c9.006,1.243,17.688-0.112,26.66-0.112c7.648,0,11.771,3.674,16.811,8.713c-0.682-4.581-0.967-9.492-3.559-13.48
		c-3.127-4.816-8.551-6.787-13.553-9.031c-3.447-1.547-13.334-5.673-9.271-10.851c2.238-2.854,6.332-3.856,9.502-5.287
		c3.51-1.583,6.996-3.221,10.395-5.031c6.271-3.341,12.623-7.339,16.984-13.069c1.967-2.584,3.451-5.535,4.137-8.721
		c0.486-2.263,7.135-4.637,9.289-6.239c11.736-8.725,16.063-23.54,10.895-37.272c13.986-2.663,26.213-14.629,28.533-28.843
		c1.813-11.107-1.125-25.432-8.334-34.238c-7.902-9.654-20.473-13.848-32.346-15.978C93.764-7.547,78.639-7.337,63.791-7.337z"/>
	<path fill="#FFFFFF" d="M-16,79.399c-12.86,5.656-18.917,16.704-18.917,16.704s-31.955,1.575-33.389-29.015
		C-70.168,27.35,8.436,13.016,28.113,9.986c19.676-3.03,46.686-1.908,46.686-1.908c56.416-0.705,60.443,15.894,62.561,27.072
		c2.115,11.177,0.904,19.381-8.014,27.915c-11.672,11.167-27.527,5.024-43.236,3.335c-17.672-1.899-31.75,1.25-31.75,1.25
		s63.721-5.196,57.801,25.198c-1.973,10.126-8.291,18.947-29.605,14.013c-6.357-1.472-14.049-0.765-14.049-0.765
		s21.547,0.193,21.609,11.855c0.039,7.343-9.418,13.366-24.928,20.367c-15.512,7-17.344,13.24-17.182,16.674
		c0.16,3.435,3.217,6.809,13.52,12.333c0,0-29.619,5.567-35.666-10.925c-5.5-15,0.252-20.558,7.25-23.75
		c-11.58,5.128-22.811,6.198-24.75-3.5c-1.75-8.75,15.047-16.494,34.24-19.449c-23.998,3.119-31.605,5.635-41.579,7.171
		c-9.848,1.516-26.21,2.442-29.472-10.645C-33.641,85.4,16.609,71.9,16.609,71.9S-4.017,74.129-16,79.399z"/>
</symbol>
<g id="Layer_2">
	<rect x="-307.964" y="-112.764" display="none" fill="#EC008C" width="1020" height="1017"/>
	<g display="none">
		<path display="inline" fill="#FFFFFF" d="M372.465,557.808c0,0-0.208,0.683-0.644,1.926c-0.498,1.252-0.966,3.053-1.468,5.207
			c-0.181,1.14-0.524,2.29-0.624,3.626c-0.076,0.643-0.155,1.311-0.238,2.004c-0.027,0.688-0.057,1.401-0.086,2.138
			c-0.051,0.716-0.002,1.471,0.018,2.224c0.038,0.758,0.004,1.508,0.146,2.297c0.121,0.783,0.168,1.561,0.278,2.351
			c0.158,0.78,0.32,1.578,0.485,2.394l0.06,0.3c0.011,0.342-0.007-0.426,0-0.328l0.012,0.046l0.023,0.092l0.048,0.186l0.183,0.746
			c0.119,0.499,0.239,1.004,0.36,1.514l0.184,0.768c0.031,0.123,0.059,0.27,0.093,0.375l0.119,0.255
			c0.151,0.334,0.304,0.671,0.457,1.01c0.146,0.335,0.294,0.665,0.419,0.998c0.188,0.377,0.377,0.758,0.567,1.142
			c0.383,0.763,0.709,1.54,1.201,2.262c1.723,2.962,3.963,5.687,6.615,7.964c2.65,2.278,5.699,4.101,8.944,5.342
			c3.249,1.241,6.696,1.885,10.217,1.886c-1.243,0.031-0.31,0.007-0.571,0.013l0.063-0.004l0.123-0.007l0.247-0.012l0.495-0.021
			l0.989-0.042l0.988-0.043l0.494-0.021c0.171-0.007,0.347-0.013,0.392-0.036c0.316-0.073,0.631-0.142,0.951-0.176l0.481-0.048
			l0.244-0.017l0.311-0.073l1.268-0.29c0.425-0.09,0.86-0.146,1.265-0.307c0.813-0.292,1.686-0.442,2.468-0.821
			c3.238-1.246,6.288-3.062,8.93-5.343c2.646-2.276,4.883-4.997,6.604-7.955c0.495-0.72,0.816-1.497,1.199-2.259
			c0.192-0.386,0.383-0.768,0.571-1.147c0.139-0.394,0.289-0.786,0.443-1.179c0.306-0.784,0.645-1.567,0.835-2.371
			c0.116-0.403,0.231-0.803,0.346-1.198l0.178-0.599l0.048-0.149l0.023-0.075l0.013-0.037c0.003-0.086,0.021,0.624,0.017,0.301
			l0.06-0.375c0.158-0.999,0.313-1.977,0.463-2.933c0.106-0.792,0.154-1.409,0.287-2.138c0.159-0.681,0.119-1.483,0.16-2.227
			c0.023-0.754,0.068-1.507,0.02-2.223c-0.028-0.736-0.056-1.449-0.082-2.138c-0.081-0.68-0.172-1.344-0.236-2.003
			c-0.096-1.337-0.439-2.487-0.618-3.628c-0.517-2.189-1.014-4.019-1.462-5.215c-0.415-1.256-0.637-1.925-0.637-1.925
			s0.617,0.321,1.768,1.012c0.571,0.35,1.313,0.768,2.055,1.388c0.756,0.607,1.716,1.276,2.603,2.187
			c0.901,0.898,1.966,1.902,2.902,3.159c0.492,0.616,1.013,1.268,1.508,1.975c0.455,0.735,0.927,1.497,1.415,2.285
			c0.527,0.79,0.914,1.665,1.334,2.574c0.409,0.924,0.892,1.811,1.229,2.931c0.371,1.06,0.728,2.271,1.031,3.361
			c0.24,0.938,0.485,1.896,0.735,2.876l0.095,0.367c-0.004-0.292,0.019,0.449,0.019,0.395l0.007,0.056l0.015,0.112l0.029,0.225
			l0.101,0.907c0.063,0.613,0.128,1.233,0.192,1.858c0.176,1.263,0.123,2.547,0.112,3.873c-0.015,0.665-0.029,1.337-0.044,2.013
			c-0.063,0.671-0.152,1.348-0.234,2.034c-0.16,1.374-0.347,2.78-0.719,4.164c-1.258,5.602-3.84,11.354-7.779,16.47
			c-3.924,5.115-9.198,9.6-15.407,12.69c-3.093,1.563-6.419,2.738-9.844,3.57l-0.646,0.166l-0.731,0.132l-1.471,0.25
			c-0.981,0.165-1.971,0.296-2.957,0.421c-0.28,0.04-0.435,0.046-0.593,0.055l-0.494,0.028l-0.988,0.057l-0.988,0.057l-0.494,0.028
			l-0.247,0.015l-0.88,0.026c-7.047-0.004-14.141-1.709-20.323-4.824c-6.203-3.097-11.478-7.573-15.394-12.691
			c-3.935-5.115-6.512-10.863-7.769-16.462c-0.376-1.381-0.556-2.787-0.718-4.161c-0.079-0.685-0.158-1.363-0.237-2.038
			c-0.038-0.739-0.053-1.474-0.068-2.194c-0.008-0.716-0.015-1.425-0.021-2.129v-0.521c0.007-0.154,0.032-0.269,0.047-0.405
			l0.104-0.782c0.069-0.519,0.139-1.033,0.206-1.543l0.106-0.76l0.029-0.189l0.015-0.094l0.007-0.048
			c0.004,0.066-0.012-0.732,0.001-0.421l0.094-0.444c0.803-4.729,2.505-8.768,4.328-11.996c0.485-0.788,0.956-1.55,1.41-2.285
			c0.493-0.707,1.017-1.357,1.506-1.975c0.932-1.258,1.997-2.26,2.896-3.16c0.88-0.906,1.871-1.622,2.626-2.228
			c0.756-0.639,1.46-1.009,2.025-1.354C371.836,558.147,372.465,557.808,372.465,557.808z"/>
	</g>
	
		<image display="none" overflow="visible" width="400" height="400" xlink:href="7851DA26.jpg"  transform="matrix(1 0 0 1 640.5347 3.7207)">
	</image>
	<g>
		<circle fill="#1E93D1" cx="374.999" cy="357.557" r="200"/>
		<path fill="none" stroke="#000000" stroke-miterlimit="10" d="M405.906,163.266"/>
		
			<use xlink:href="#bullgit"  width="498.351" height="556.56" id="XMLID_1_" x="-249.175" y="-278.28" transform="matrix(1 0 0 -1 374.9995 293.9028)" overflow="visible"/>
		<g>
			<g>
				<path fill="#1E93D1" d="M194.97,703.62c-7,0-14.069-1.606-21.01-4.773c-2.281-1.008-4.278-2.198-5.925-3.534
					c-0.234-0.189-0.37-0.475-0.37-0.776V606.77c0-3.577-0.45-4.755-0.717-5.138c-0.724-1.103-2.003-1.626-3.929-1.626
					c-0.954,0-1.854,0.09-2.676,0.267c-0.525,0.112-0.966,0.166-1.35,0.166c-0.489,0-0.885-0.089-1.21-0.271
					c-0.467-0.264-0.874-0.625-1.211-1.077c-1.274-1.938-0.112-4.207,3.418-6.793c4.856-3.576,9.74-5.391,14.513-5.391
					c5.368,0,8.551,3.035,9.206,8.777c0.175,1.626,0.263,3.346,0.263,5.119v29.153c6.158-5.153,13.041-7.763,20.493-7.763
					c8.977,0,16.393,3.153,22.041,9.373c6.131,6.656,9.242,16.037,9.242,27.875c0,13.306-4.244,24.251-12.615,32.533
					C215.229,699.704,205.755,703.62,194.97,703.62z M183.972,686.874c3.747,2.975,8.264,4.482,13.436,4.482
					c6.379,0,11.417-2.298,15.403-7.023c4.229-5.011,6.373-12.024,6.373-20.848c0-9.301-1.89-16.364-5.617-20.994
					c-3.302-4.199-7.798-6.236-13.753-6.236c-5.801,0-11.128,2.205-15.841,6.557V686.874z"/>
				<path fill="#1E93D1" d="M270.068,703.62c-2.712,0-5.396-0.38-7.978-1.13c-2.634-0.765-4.954-2.023-6.896-3.74
					c-4.14-3.645-6.24-9.293-6.24-16.788v-37.66c0-2.343-0.174-4.237-0.517-5.633c-0.358-1.451-0.978-1.451-1.242-1.451
					c-0.861,0-1.337,0.106-1.585,0.196l-1.494,0.625c-0.036,0.015-0.072,0.027-0.11,0.038c-0.139,0.04-0.284,0.061-0.431,0.061
					c-0.549,0-1.086-0.271-1.643-0.828c-1.028-1.135-1.511-2.162-1.511-3.178c0-0.927,0.295-1.896,0.876-2.881
					c0.533-0.904,1.311-1.896,2.378-3.032c1.058-1.126,2.278-2.129,3.625-2.982c3.042-2.015,5.882-3.042,8.427-3.042
					c2.615,0,4.46,0.474,5.641,1.447c1.113,0.921,1.968,2.138,2.541,3.617c0.907,2.273,1.351,5.563,1.351,10.049v40.164
					c0,6.741,1.876,10.387,5.736,11.144c1.257,0.243,2.78,0.366,4.523,0.366c1.736,0,3.627-0.229,5.618-0.681
					c2.004-0.454,3.947-1.064,5.776-1.812c3.364-1.385,6.391-3.152,9.002-5.257v-36.931c0-4.587-0.938-6.157-1.725-6.667
					c-0.43-0.275-1.048-0.417-1.831-0.417c-0.815,0-1.449,0.113-1.883,0.338c-0.631,0.326-1.136,0.555-1.54,0.696
					c-0.272,0.096-0.543,0.146-0.801,0.146c-0.347,0-0.671-0.087-0.964-0.257c-0.331-0.192-0.682-0.474-1.039-0.833
					c-0.845-0.956-1.253-1.912-1.253-2.887c0-0.919,0.323-1.889,0.96-2.882c0.588-0.915,1.492-1.925,2.767-3.086
					c1.24-1.13,2.68-2.175,4.276-3.106c3.606-2.093,7.271-3.152,10.896-3.152c3.281,0,7.363,1.703,8.181,9.817
					c0.174,1.702,0.263,3.484,0.263,5.296v37.982c0,8.042,0.394,10.974,0.723,12.017c0.551,1.742,1.103,2.402,1.468,2.649
					c0.563,0.381,1.262,0.566,2.134,0.566c0.906,0,1.642-0.138,2.185-0.408l1.974-0.857c0.056-0.023,0.112-0.043,0.172-0.057
					c0.166-0.038,0.334-0.058,0.499-0.058c0.55,0,1.348,0.217,2.034,1.248c1.405,2.073,0.999,3.68,0.41,4.66
					c-0.709,1.182-1.803,2.317-3.252,3.373c-1.397,1.022-2.983,1.923-4.712,2.676c-3.736,1.641-7.015,2.474-9.743,2.474
					c-2.979,0-5.394-0.977-7.174-2.903c-1.501-1.618-2.459-4.018-2.858-7.146c-5.914,4.315-12.031,7.373-18.208,9.099
					C275.396,703.285,272.772,703.62,270.068,703.62z"/>
				<path fill="#1E93D1" d="M368.198,702.721c-0.08,0-0.161-0.01-0.241-0.029c-0.776-0.193-2.077-0.291-3.865-0.291h-20.466
					c-7.177,0-10.816-1.848-10.816-5.49c0-1.803,0.396-3.22,1.176-4.212c0.193-0.246,0.485-0.382,0.786-0.382
					c0.106,0,0.213,0.017,0.317,0.052c0.916,0.307,1.781,0.462,2.57,0.462c1.979,0,4.627-0.598,4.774-5.765V606.77
					c0-3.757-0.492-4.831-0.703-5.118c-0.799-1.11-2.087-1.646-3.943-1.646c-0.913,0-1.805,0.09-2.648,0.268
					c-0.535,0.111-0.984,0.165-1.378,0.165c-0.489,0-0.889-0.085-1.219-0.259c-0.525-0.279-0.944-0.669-1.249-1.159
					c-1.174-1.936-0.005-4.194,3.468-6.726c4.854-3.574,9.738-5.389,14.511-5.389c5.368,0,8.552,3.035,9.206,8.777
					c0.175,1.625,0.263,3.345,0.263,5.119v86.547c0.111,2.864,1.084,4.582,2.974,5.212c0.615,0.193,1.386,0.378,2.272,0.543
					c0.953,0.177,1.844,0.391,2.646,0.637c0.874,0.267,1.554,0.573,2.074,0.938c1.02,0.778,1.519,1.952,1.519,3.515
					c0,1.724-0.419,3.12-1.246,4.152C368.786,702.586,368.497,702.721,368.198,702.721z"/>
				<path fill="#1E93D1" d="M414.07,702.721c-0.08,0-0.161-0.01-0.241-0.029c-0.775-0.193-2.075-0.291-3.864-0.291h-20.467
					c-7.177,0-10.815-1.848-10.815-5.49c0-1.805,0.396-3.222,1.177-4.213c0.192-0.245,0.484-0.381,0.785-0.381
					c0.106,0,0.213,0.017,0.317,0.052c0.915,0.307,1.779,0.462,2.569,0.462c1.979,0,4.628-0.598,4.774-5.765V606.77
					c0-3.757-0.492-4.831-0.703-5.118c-0.799-1.11-2.086-1.646-3.942-1.646c-0.913,0-1.805,0.09-2.649,0.268
					c-0.534,0.111-0.984,0.165-1.377,0.165c-0.49,0-0.89-0.085-1.22-0.259c-0.526-0.28-0.945-0.67-1.25-1.161
					c-1.173-1.934-0.004-4.193,3.469-6.724c4.854-3.574,9.738-5.389,14.512-5.389c5.367,0,8.551,3.035,9.205,8.777
					c0.176,1.631,0.264,3.351,0.264,5.119v86.547c0.11,2.864,1.083,4.582,2.973,5.212c0.617,0.193,1.388,0.378,2.273,0.543
					c0.953,0.177,1.843,0.391,2.645,0.637c0.872,0.266,1.552,0.572,2.075,0.937c1.02,0.78,1.519,1.954,1.519,3.516
					c0,1.723-0.42,3.119-1.247,4.152C414.658,702.586,414.369,702.721,414.07,702.721z"/>
				<path d="M453.336,735.315c-5.048,0-9.531-0.407-13.327-1.209c-3.831-0.812-7.285-2.091-10.267-3.801
					c-6.593-3.811-9.934-9.369-9.934-16.521c0-6.068,3.041-11.556,9.04-16.31c1.434-1.119,2.952-2.15,4.532-3.078
					c-1.855-1.992-2.794-4.528-2.794-7.558c0-4.898,2.203-9.125,6.555-12.586c-6.745-3.032-11.282-8.1-13.501-15.084
					c-0.756-2.49-1.138-5.286-1.138-8.322c0-3.054,0.483-5.972,1.436-8.674c0.953-2.701,2.279-5.149,3.941-7.276
					c1.655-2.119,3.612-3.998,5.817-5.586c2.19-1.576,4.565-2.908,7.061-3.96c4.885-2.094,10.091-3.156,15.466-3.156
					c8.197,0,14.971,1.942,20.161,5.776c0.306-1.579,0.46-3.201,0.46-4.841c0-2.046-0.437-3.71-1.297-4.946
					c-0.26-0.372-0.235-0.872,0.058-1.219c1.86-2.192,4.621-3.304,8.205-3.304c2.132,0,3.871,0.606,5.169,1.804
					c2.334,2.007,3.53,4.108,3.53,6.222c0,1.939-0.306,3.666-0.909,5.129c-0.589,1.423-1.364,2.78-2.307,4.036
					c-1.478,2.077-3.391,4.009-5.684,5.736c1.521,3.162,2.291,6.799,2.291,10.825c0,4.356-0.977,8.46-2.902,12.198
					c-1.914,3.72-4.516,6.925-7.733,9.526c-6.569,5.3-14.768,7.986-24.367,7.986c-1.194,0-2.642-0.092-4.306-0.271
					c-1.206,1.299-1.816,2.541-1.816,3.697c0,1.251,0.33,2.15,1.009,2.747c0.784,0.69,1.844,1.235,3.149,1.62
					c2.104,0.566,4.499,0.857,7.096,0.857h5.518c14.235,0,23.776,3.519,28.358,10.457c1.729,2.638,2.604,5.876,2.604,9.629
					c0,3.693-0.633,6.992-1.882,9.806c-1.241,2.79-2.926,5.294-5.009,7.443c-2.066,2.132-4.495,3.993-7.219,5.532
					c-2.701,1.523-5.592,2.78-8.593,3.738C463.971,734.326,458.425,735.315,453.336,735.315z M443.334,699.462
					c-5.046,3.53-7.604,7.526-7.604,11.884c0,3.794,2.199,6.622,6.722,8.646c3.752,1.732,8.446,2.608,13.964,2.608
					c5.026,0,9.739-0.841,14.009-2.499c5.397-2.119,8.023-5.445,8.023-10.167c0-6.278-5.15-9.33-15.745-9.33l-5.698,0.064
					C451.361,700.668,446.768,700.263,443.334,699.462z M453.336,633.047c-6.824,0-11.112,2.681-13.11,8.194
					c-0.684,1.89-1.03,4.278-1.03,7.101c0,2.821,0.421,5.381,1.251,7.607c0.823,2.207,1.955,4.039,3.363,5.447
					c1.409,1.409,3.047,2.465,4.869,3.138c1.842,0.683,3.851,1.028,5.973,1.028c2.131,0,4.164-0.307,6.045-0.913
					c1.855-0.599,3.478-1.485,4.822-2.633c2.916-2.477,4.333-5.92,4.333-10.53c0-5.138-1.333-9.465-3.962-12.86
					C462.906,634.875,458.796,633.047,453.336,633.047z"/>
				<path d="M537.254,702.721c-0.077,0-0.154-0.009-0.23-0.027c-0.82-0.194-2.124-0.293-3.875-0.293h-20.467
					c-7.22,0-10.88-1.848-10.88-5.49c0-1.764,0.419-3.183,1.245-4.218c0.193-0.242,0.482-0.376,0.781-0.376
					c0.106,0,0.213,0.017,0.317,0.052c0.915,0.307,1.759,0.462,2.506,0.462c1.487,0,2.587-0.383,3.361-1.171
					c1.022-1.04,1.52-2.851,1.477-5.383v-43.003c0-3.448-0.58-4.989-1.066-5.676c-0.633-0.892-1.858-1.344-3.644-1.344
					c-1.476,0-2.825,0.181-4.012,0.536c-0.058,0.018-0.116,0.029-0.176,0.036c-0.086,0.009-0.171,0.014-0.253,0.014
					c-0.828,0-1.932-0.441-2.492-2.547c-0.38-1.459-0.152-2.768,0.673-3.896c0.711-0.973,1.761-1.948,3.209-2.982
					c1.399-0.999,2.958-1.885,4.632-2.633c3.604-1.715,6.705-2.589,9.197-2.589c2.562,0,4.441,0.383,5.746,1.169
					c1.287,0.779,2.285,1.841,2.969,3.155c1.028,2.059,1.524,5.185,1.524,9.57v51.262c0.11,2.9,1.078,4.615,2.956,5.206
					c0.604,0.202,1.355,0.385,2.254,0.549c0.976,0.176,1.87,0.392,2.655,0.639c0.852,0.268,1.519,0.573,2.036,0.936
					c1.02,0.779,1.519,1.953,1.519,3.515c0,1.765-0.396,3.16-1.179,4.148C537.846,702.584,537.556,702.721,537.254,702.721z
					 M516.596,612.26c-1.566,0-3.031-0.247-4.355-0.735c-1.343-0.495-2.527-1.226-3.521-2.172c-2.079-1.984-3.133-4.667-3.133-7.974
					c0-3.19,1.233-5.922,3.666-8.119c2.306-2.168,5.127-3.273,8.369-3.273c3.254,0,5.909,1.005,7.893,2.986
					c1.982,1.982,2.987,4.681,2.987,8.021c0,3.183-1.186,5.911-3.523,8.107C522.694,611.201,519.876,612.26,516.596,612.26z"/>
				<path d="M570.972,703.62c-3.447,0-6.303-0.199-8.485-0.592c-2.287-0.411-4.268-1.254-5.888-2.503
					c-3.324-2.585-5.008-7.275-5.008-13.944v-49.492h-5.352c-1.668,0-2.915-0.575-3.708-1.711c-1.147-1.479-1.72-2.771-1.72-3.908
					c0-2.015,0.626-3.184,1.861-3.476c6.521-1.108,10.986-5.837,13.712-14.468c0.789-2.619,1.425-5.781,1.886-9.387
					c0.057-0.438,0.393-0.787,0.828-0.859c2.123-0.354,3.698-0.525,4.815-0.525c1.383,0,2.573,0.68,3.538,2.02
					c0.895,1.24,1.336,2.694,1.312,4.32c-0.022,1.419-0.054,2.751-0.098,3.997c-0.043,1.239-0.085,2.585-0.127,4.036l-0.228,7.953
					h21.17c0.361,0,0.694,0.194,0.871,0.509c0.639,1.134,0.963,2.357,0.963,3.636v1.988c0,2.168-1.138,3.937-3.381,5.257
					c-2.071,1.219-4.39,1.837-6.891,1.837c-2.385,0-4.042-0.032-5.068-0.098c-1.015-0.065-1.996-0.14-2.945-0.227l-2.867-0.39
					c-0.625-0.054-1.3-0.109-2.01-0.166l-0.063,20.221l-0.064,16.876c0,9,0.615,11.556,0.982,12.277
					c0.593,1.168,1.247,1.86,1.946,2.057c0.89,0.253,2.071,0.381,3.514,0.381c1.474,0,2.826-0.113,4.02-0.337
					c1.202-0.223,2.352-0.523,3.418-0.892c1.075-0.372,2.124-0.792,3.117-1.247l3.167-1.357c0.26-0.095,0.467-0.131,0.677-0.131
					c1.425,0,2.42,1.621,3.044,2.84c0.324,0.594,0.495,1.305,0.495,2.091c0,0.792-0.289,1.73-0.883,2.869
					c-0.579,1.109-1.633,2.309-3.221,3.666c-1.531,1.311-3.337,2.488-5.366,3.502C578.544,702.482,574.516,703.62,570.972,703.62z"
					/>
			</g>
		</g>
	</g>
</g>
<g id="Layer_3">
	<g id="Shit">
	</g>
</g>
</svg>
