<svg xmlns="http://www.w3.org/2000/svg" xmlns:xlink="http://www.w3.org/1999/xlink" version="1.1" x="0" y="0" width="750" height="750" viewBox="0 0 750 750" enable-background="new 0 0 750 750" xml:space="preserve">
  <symbol id="bullgit" viewBox="-249.17 -278.28 498.35 556.56">
    <path d="M66.34 62.6c73.72-44.23 60.75-72.84 86.7-73.72 25.95-0.88 35.39 61.63 69.3 86.11 12.04 8.69 26.84 9.44 26.84 9.44s-16.63-29.8-15.39-50.55c1.65-27.68 10.36-75.44-32.38-101.32-40.67-24.62-51.71-22.69-51.71-22.69s6.78-11.99 25.87-36.96c36.14-47.27 38.45-51.76 36.56-57.07 52.55-32.15 22.59-134.37-69.05-76.91-23.28-12.88-49.11-13.46-89.17 10.78C5-220.7-9.71-195.54-63.64-187.57c-32.17 4.75-61.77 19.12-78.07 44.74-16.51 25.94-17.86 45.4-17.86 45.4s-49.42-9.8-75.37-6.85-11.58 21.02 5.01 42.17c25.49 32.51 79.95 57.67 79.95 57.67s-64.65 18.22-72.49 60.92c-8.21 44.72 15.99 84.66 54.05 105.8 46.19 25.65 81.47 36.26 111.97 62.41 24.07 20.63 33.99 39.66 40.96 53.6 8.47-12.26 24.4-49.68-42.71-112.86-19.43-18.3-49.07-42.01-49.24-54.91-0.14-10.25 8.31-19.77 37.72-25.28 16.73 4.66 27.74 5.78 44.35 5.38C9.23 89.78 46.39 74.57 66.34 62.6z"/>
    <path fill="#FFFFFF" d="M-110.31-15.23c36.55-9.3-1.38-19.72-16-19.72-10.18-10.28-32.58-34.15-59.47-41.34s-38.77-2.19-38.77-2.19 14.69 21.93 33.53 37.22 55.94 32.81 55.94 32.81S-123.59-11.85-110.31-15.23z"/>
    <path fill="#FFFFFF" d="M1.06-30.39C-4.35-39.6-5.99-45.71-3.86-55.76-0.74-70.55 7.58-81.39 26.3-84c11.01-1.54 18.2-1 25.64 3.73C38.68-64.05 19.95-43.44 1.06-30.39z"/>
    <path fill="#FFFFFF" d="M211.46-213c0.1-2.15 0.03-8.68-1.79-13.11-1.58-3.83-4.14-7.21-7.41-9.76-1.86-1.46-3.93-2.65-6.12-3.53-0.91-0.36-1.83-0.68-2.77-0.94 0.12 0.03-4.6-0.92-2.28-0.56-15.46-2.34-29.15 5.52-38.1 17.85 0.03-0.1 0.06-0.19 0.08-0.29-1.99 3.69-3.73 7.25-4.99 11.25-0.68 2.95-3.41 8-7.1 4.88-4.5-3.8-3.45-14.47-2.27-19.6 5.56-22.56 27.32-37 49.74-38.51 16.96-1.14 34.86 8.13 40.55 24.72 5.83 17.01-2.61 35.74-17.05 45.43-1.21 0.81-3.32 2.59-4.89 2.23-1.53-0.35-2.28-2.28-1.45-3.59C206.17-197.62 211.16-206.88 211.46-213z"/>
    <path fill="#FFFFFF" d="M-15.93 260.42c-12.46-25.2-40.18-59.24-113.41-89.4-18.82-7.75-36.92-17.94-51.76-31.96-32.51-30.7-33.5-56.27-31.39-75.14 0.53-4.73 2.08-9.08 4.26-13.08-0.71 2.42-1.21 4.88-1.45 7.35-3.03 30.77 10.72 73.04 115.08 120.69 9.53 4.35 17.64 7.92 31.2 16.99C-99.04 168.69-167.02 133.8-158.71 79.19c3.3-21.65 49.43-40.13 69.17-48.44 4.07 11.74 7.03 22.92 7.36 27.7 0.56 8.05-1.27 15.75-9.18 19.51-18.11 6.85-25.71 11.95-29.43 21.4-12.54 31.85 49.29 61.36 70.39 86.74C-17.43 225.76-12.44 244.65-15.93 260.42z"/>
    <path fill="#FFFFFF" d="M235.14 72.36c-38.82-16.48-40.45-74.06-67.81-91.89-11.64-7.59-16.81-7.52-33.8-1.05 0-6.09 6.62-12.27 18.42-13.42 55.51-5.41 61.23 47.01 61.23 47.01s2.3-25.46-5.96-55.27c11.24 9.17 20.76 35.09 19.07 57.74C225.28 28.86 220.37 49.85 235.14 72.36z"/>
    <path fill="#FFFFFF" d="M123.47-69.41c-6.71 10.68 7.58 25.7 7.58 25.7s-8.63 54.03-52.76 83.24C17.28 79.91-37.34 77.3-37.34 77.3s16.3-21.78 20.43-35.99c2.77-9.53 0.97-22.53-1.98-32.62C-7.85 3.78 23.66-8.89 58.8-54.4c23.58-30.54 79.83-90.23 96-109.05 10.94 4.32 23.04 5.55 35.42 3.95C168.56-131.38 131.6-82.35 123.47-69.41z"/>
    <path fill="#FFFFFF" d="M175.5-165.66c-59.25-8.5-56.98-46.77-47.48-49.25-0.65 0.17 0.09 6.27 0.18 6.9 0.36 2.33 0.97 4.62 2.19 6.65 2.04 3.4 5.28 5.61 9 6.81 4.55 1.46 10.44 2.43 12.41-3.19 1.6-4.57 0.21-10.08 4.97-13.07 6.35-3.99 15.48-4.77 22.57-2.6 7.42 2.27 15.27 6.92 16.05 15.39 0.27 2.96-0.94 7.47 0.71 10.11 2.74 4.4 5.72 5.85 9.38 6.44C204.81-180.69 201.49-161.93 175.5-165.66z"/>
    <path d="M63.79-7.34c-21.58 0-42.59 2.48-63.55 7.59-20.59 5.02-41.94 11.93-59.07 24.83-15.55 11.7-25.02 29.01-20.02 48.71 3.88 15.28 16.68 25.22 31.82 28.01 1.9 0.35 3.81 0.59 5.74 0.71 2.16 0.14 1.57 2.59 2.01 4.5 0.77 3.26 2.23 6.35 4.41 8.91 7.78 9.17 21.65 9.38 32.59 8.06-0.31 9.45 7.11 17.39 16.58 17.16-1.13 8.52 1.36 18.42 7.56 24.6 5.4 5.38 13.04 7.76 20.42 8.78 9.01 1.24 17.69-0.11 26.66-0.11 7.65 0 11.77 3.67 16.81 8.71-0.68-4.58-0.97-9.49-3.56-13.48-3.13-4.82-8.55-6.79-13.55-9.03-3.45-1.55-13.33-5.67-9.27-10.85 2.24-2.85 6.33-3.86 9.5-5.29 3.51-1.58 7-3.22 10.4-5.03 6.27-3.34 12.62-7.34 16.98-13.07 1.97-2.58 3.45-5.53 4.14-8.72 0.49-2.26 7.14-4.64 9.29-6.24 11.74-8.72 16.06-23.54 10.9-37.27 13.99-2.66 26.21-14.63 28.53-28.84 1.81-11.11-1.12-25.43-8.33-34.24-7.9-9.65-20.47-13.85-32.35-15.98C93.76-7.55 78.64-7.34 63.79-7.34z"/>
    <path fill="#FFFFFF" d="M-16 79.4c-12.86 5.66-18.92 16.7-18.92 16.7s-31.95 1.58-33.39-29.01C-70.17 27.35 8.44 13.02 28.11 9.99c19.68-3.03 46.69-1.91 46.69-1.91 56.42-0.7 60.44 15.89 62.56 27.07 2.12 11.18 0.9 19.38-8.01 27.92-11.67 11.17-27.53 5.02-43.24 3.34-17.67-1.9-31.75 1.25-31.75 1.25s63.72-5.2 57.8 25.2c-1.97 10.13-8.29 18.95-29.6 14.01-6.36-1.47-14.05-0.76-14.05-0.76s21.55 0.19 21.61 11.86c0.04 7.34-9.42 13.37-24.93 20.37-15.51 7-17.34 13.24-17.18 16.67 0.16 3.44 3.22 6.81 13.52 12.33 0 0-29.62 5.57-35.67-10.92-5.5-15 0.25-20.56 7.25-23.75-11.58 5.13-22.81 6.2-24.75-3.5-1.75-8.75 15.05-16.49 34.24-19.45-24 3.12-31.6 5.64-41.58 7.17-9.85 1.52-26.21 2.44-29.47-10.64C-33.64 85.4 16.61 71.9 16.61 71.9S-4.02 74.13-16 79.4z"/>
  </symbol>
  <g id="Layer_2">
    <rect x="-307.96" y="-112.76" display="none" fill="#EC008C" width="1020" height="1017"/>
    <g display="none">
      <path display="inline" fill="#FFFFFF" d="M372.47 557.81c0 0-0.21 0.68-0.64 1.93-0.5 1.25-0.97 3.05-1.47 5.21-0.18 1.14-0.52 2.29-0.62 3.63-0.08 0.64-0.15 1.31-0.24 2-0.03 0.69-0.06 1.4-0.09 2.14-0.05 0.72 0 1.47 0.02 2.22 0.04 0.76 0 1.51 0.15 2.3 0.12 0.78 0.17 1.56 0.28 2.35 0.16 0.78 0.32 1.58 0.49 2.39l0.06 0.3c0.01 0.34-0.01-0.43 0-0.33l0.01 0.05 0.02 0.09 0.05 0.19 0.18 0.75c0.12 0.5 0.24 1 0.36 1.51l0.18 0.77c0.03 0.12 0.06 0.27 0.09 0.38l0.12 0.26c0.15 0.33 0.3 0.67 0.46 1.01 0.15 0.34 0.29 0.67 0.42 1 0.19 0.38 0.38 0.76 0.57 1.14 0.38 0.76 0.71 1.54 1.2 2.26 1.72 2.96 3.96 5.69 6.62 7.96 2.65 2.28 5.7 4.1 8.94 5.34 3.25 1.24 6.7 1.89 10.22 1.89-1.24 0.03-0.31 0.01-0.57 0.01l0.06 0 0.12-0.01 0.25-0.01 0.5-0.02 0.99-0.04 0.99-0.04 0.49-0.02c0.17-0.01 0.35-0.01 0.39-0.04 0.32-0.07 0.63-0.14 0.95-0.18l0.48-0.05 0.24-0.02 0.31-0.07 1.27-0.29c0.43-0.09 0.86-0.15 1.26-0.31 0.81-0.29 1.69-0.44 2.47-0.82 3.24-1.25 6.29-3.06 8.93-5.34 2.65-2.28 4.88-5 6.6-7.95 0.5-0.72 0.82-1.5 1.2-2.26 0.19-0.39 0.38-0.77 0.57-1.15 0.14-0.39 0.29-0.79 0.44-1.18 0.31-0.78 0.65-1.57 0.84-2.37 0.12-0.4 0.23-0.8 0.35-1.2l0.18-0.6 0.05-0.15 0.02-0.07 0.01-0.04c0-0.09 0.02 0.62 0.02 0.3l0.06-0.37c0.16-1 0.31-1.98 0.46-2.93 0.11-0.79 0.15-1.41 0.29-2.14 0.16-0.68 0.12-1.48 0.16-2.23 0.02-0.75 0.07-1.51 0.02-2.22-0.03-0.74-0.06-1.45-0.08-2.14-0.08-0.68-0.17-1.34-0.24-2-0.1-1.34-0.44-2.49-0.62-3.63-0.52-2.19-1.01-4.02-1.46-5.21-0.41-1.26-0.64-1.92-0.64-1.92s0.62 0.32 1.77 1.01c0.57 0.35 1.31 0.77 2.06 1.39 0.76 0.61 1.72 1.28 2.6 2.19 0.9 0.9 1.97 1.9 2.9 3.16 0.49 0.62 1.01 1.27 1.51 1.98 0.46 0.74 0.93 1.5 1.42 2.29 0.53 0.79 0.91 1.67 1.33 2.57 0.41 0.92 0.89 1.81 1.23 2.93 0.37 1.06 0.73 2.27 1.03 3.36 0.24 0.94 0.49 1.9 0.74 2.88l0.1 0.37c0-0.29 0.02 0.45 0.02 0.4l0.01 0.06 0.02 0.11 0.03 0.23 0.1 0.91c0.06 0.61 0.13 1.23 0.19 1.86 0.18 1.26 0.12 2.55 0.11 3.87-0.01 0.67-0.03 1.34-0.04 2.01-0.06 0.67-0.15 1.35-0.23 2.03-0.16 1.37-0.35 2.78-0.72 4.16-1.26 5.6-3.84 11.35-7.78 16.47-3.92 5.12-9.2 9.6-15.41 12.69-3.09 1.56-6.42 2.74-9.84 3.57l-0.65 0.17-0.73 0.13-1.47 0.25c-0.98 0.17-1.97 0.3-2.96 0.42-0.28 0.04-0.43 0.05-0.59 0.06l-0.49 0.03-0.99 0.06-0.99 0.06-0.49 0.03-0.25 0.02-0.88 0.03c-7.05 0-14.14-1.71-20.32-4.82-6.2-3.1-11.48-7.57-15.39-12.69-3.93-5.11-6.51-10.86-7.77-16.46-0.38-1.38-0.56-2.79-0.72-4.16-0.08-0.68-0.16-1.36-0.24-2.04-0.04-0.74-0.05-1.47-0.07-2.19-0.01-0.72-0.01-1.42-0.02-2.13v-0.52c0.01-0.15 0.03-0.27 0.05-0.4l0.1-0.78c0.07-0.52 0.14-1.03 0.21-1.54l0.11-0.76 0.03-0.19 0.02-0.09 0.01-0.05c0 0.07-0.01-0.73 0-0.42l0.09-0.44c0.8-4.73 2.51-8.77 4.33-12 0.49-0.79 0.96-1.55 1.41-2.28 0.49-0.71 1.02-1.36 1.51-1.97 0.93-1.26 2-2.26 2.9-3.16 0.88-0.91 1.87-1.62 2.63-2.23 0.76-0.64 1.46-1.01 2.03-1.35C371.84 558.15 372.47 557.81 372.47 557.81z"/>
    </g>
    <image display="none" overflow="visible" width="400" height="400" xlink:href="7851" transform="matrix(1 0 0 1 640.5347 3.7207)"/>
    <circle fill="#1E93D1" cx="375" cy="357.56" r="200"/>
    <path fill="none" stroke="#000000" stroke-miterlimit="10" d="M405.91 163.27"/>
    <use xlink:href="#bullgit" width="498.35" height="556.56" id="XMLID_1_" x="-249.17" y="-278.28" transform="matrix(1 0 0 -1 374.9995 293.9028)" overflow="visible"/>
    <path fill="#1E93D1" d="M194.97 703.62c-7 0-14.07-1.61-21.01-4.77-2.28-1.01-4.28-2.2-5.92-3.53-0.23-0.19-0.37-0.47-0.37-0.78V606.77c0-3.58-0.45-4.75-0.72-5.14-0.72-1.1-2-1.63-3.93-1.63-0.95 0-1.85 0.09-2.68 0.27-0.52 0.11-0.97 0.17-1.35 0.17-0.49 0-0.88-0.09-1.21-0.27-0.47-0.26-0.87-0.62-1.21-1.08-1.27-1.94-0.11-4.21 3.42-6.79 4.86-3.58 9.74-5.39 14.51-5.39 5.37 0 8.55 3.04 9.21 8.78 0.18 1.63 0.26 3.35 0.26 5.12v29.15c6.16-5.15 13.04-7.76 20.49-7.76 8.98 0 16.39 3.15 22.04 9.37 6.13 6.66 9.24 16.04 9.24 27.88 0 13.31-4.24 24.25-12.61 32.53C215.23 699.7 205.76 703.62 194.97 703.62zM183.97 686.87c3.75 2.98 8.26 4.48 13.44 4.48 6.38 0 11.42-2.3 15.4-7.02 4.23-5.01 6.37-12.02 6.37-20.85 0-9.3-1.89-16.36-5.62-20.99-3.3-4.2-7.8-6.24-13.75-6.24-5.8 0-11.13 2.21-15.84 6.56V686.87z"/>
    <path fill="#1E93D1" d="M270.07 703.62c-2.71 0-5.4-0.38-7.98-1.13-2.63-0.76-4.95-2.02-6.9-3.74-4.14-3.64-6.24-9.29-6.24-16.79v-37.66c0-2.34-0.17-4.24-0.52-5.63-0.36-1.45-0.98-1.45-1.24-1.45-0.86 0-1.34 0.11-1.58 0.2l-1.49 0.63c-0.04 0.02-0.07 0.03-0.11 0.04-0.14 0.04-0.28 0.06-0.43 0.06-0.55 0-1.09-0.27-1.64-0.83-1.03-1.13-1.51-2.16-1.51-3.18 0-0.93 0.3-1.9 0.88-2.88 0.53-0.9 1.31-1.9 2.38-3.03 1.06-1.13 2.28-2.13 3.63-2.98 3.04-2.01 5.88-3.04 8.43-3.04 2.62 0 4.46 0.47 5.64 1.45 1.11 0.92 1.97 2.14 2.54 3.62 0.91 2.27 1.35 5.56 1.35 10.05v40.16c0 6.74 1.88 10.39 5.74 11.14 1.26 0.24 2.78 0.37 4.52 0.37 1.74 0 3.63-0.23 5.62-0.68 2-0.45 3.95-1.06 5.78-1.81 3.36-1.38 6.39-3.15 9-5.26v-36.93c0-4.59-0.94-6.16-1.72-6.67-0.43-0.28-1.05-0.42-1.83-0.42-0.81 0-1.45 0.11-1.88 0.34-0.63 0.33-1.14 0.56-1.54 0.7-0.27 0.1-0.54 0.15-0.8 0.15-0.35 0-0.67-0.09-0.96-0.26-0.33-0.19-0.68-0.47-1.04-0.83-0.84-0.96-1.25-1.91-1.25-2.89 0-0.92 0.32-1.89 0.96-2.88 0.59-0.91 1.49-1.92 2.77-3.09 1.24-1.13 2.68-2.17 4.28-3.11 3.61-2.09 7.27-3.15 10.9-3.15 3.28 0 7.36 1.7 8.18 9.82 0.17 1.7 0.26 3.48 0.26 5.3v37.98c0 8.04 0.39 10.97 0.72 12.02 0.55 1.74 1.1 2.4 1.47 2.65 0.56 0.38 1.26 0.57 2.13 0.57 0.91 0 1.64-0.14 2.19-0.41l1.97-0.86c0.06-0.02 0.11-0.04 0.17-0.06 0.17-0.04 0.33-0.06 0.5-0.06 0.55 0 1.35 0.22 2.03 1.25 1.41 2.07 1 3.68 0.41 4.66-0.71 1.18-1.8 2.32-3.25 3.37-1.4 1.02-2.98 1.92-4.71 2.68-3.74 1.64-7.01 2.47-9.74 2.47-2.98 0-5.39-0.98-7.17-2.9-1.5-1.62-2.46-4.02-2.86-7.15-5.91 4.32-12.03 7.37-18.21 9.1C275.4 703.29 272.77 703.62 270.07 703.62z"/>
    <path fill="#1E93D1" d="M368.2 702.72c-0.08 0-0.16-0.01-0.24-0.03-0.78-0.19-2.08-0.29-3.86-0.29h-20.47c-7.18 0-10.82-1.85-10.82-5.49 0-1.8 0.4-3.22 1.18-4.21 0.19-0.25 0.49-0.38 0.79-0.38 0.11 0 0.21 0.02 0.32 0.05 0.92 0.31 1.78 0.46 2.57 0.46 1.98 0 4.63-0.6 4.77-5.76V606.77c0-3.76-0.49-4.83-0.7-5.12-0.8-1.11-2.09-1.65-3.94-1.65-0.91 0-1.8 0.09-2.65 0.27-0.53 0.11-0.98 0.17-1.38 0.17-0.49 0-0.89-0.08-1.22-0.26-0.52-0.28-0.94-0.67-1.25-1.16-1.17-1.94 0-4.19 3.47-6.73 4.85-3.57 9.74-5.39 14.51-5.39 5.37 0 8.55 3.04 9.21 8.78 0.18 1.63 0.26 3.35 0.26 5.12v86.55c0.11 2.86 1.08 4.58 2.97 5.21 0.62 0.19 1.39 0.38 2.27 0.54 0.95 0.18 1.84 0.39 2.65 0.64 0.87 0.27 1.55 0.57 2.07 0.94 1.02 0.78 1.52 1.95 1.52 3.52 0 1.72-0.42 3.12-1.25 4.15C368.79 702.59 368.5 702.72 368.2 702.72z"/>
    <path fill="#1E93D1" d="M414.07 702.72c-0.08 0-0.16-0.01-0.24-0.03-0.77-0.19-2.08-0.29-3.86-0.29h-20.47c-7.18 0-10.81-1.85-10.81-5.49 0-1.8 0.4-3.22 1.18-4.21 0.19-0.24 0.48-0.38 0.79-0.38 0.11 0 0.21 0.02 0.32 0.05 0.92 0.31 1.78 0.46 2.57 0.46 1.98 0 4.63-0.6 4.77-5.76V606.77c0-3.76-0.49-4.83-0.7-5.12-0.8-1.11-2.09-1.65-3.94-1.65-0.91 0-1.8 0.09-2.65 0.27-0.53 0.11-0.98 0.17-1.38 0.17-0.49 0-0.89-0.08-1.22-0.26-0.53-0.28-0.94-0.67-1.25-1.16-1.17-1.93 0-4.19 3.47-6.72 4.85-3.57 9.74-5.39 14.51-5.39 5.37 0 8.55 3.04 9.21 8.78 0.18 1.63 0.26 3.35 0.26 5.12v86.55c0.11 2.86 1.08 4.58 2.97 5.21 0.62 0.19 1.39 0.38 2.27 0.54 0.95 0.18 1.84 0.39 2.65 0.64 0.87 0.27 1.55 0.57 2.08 0.94 1.02 0.78 1.52 1.95 1.52 3.52 0 1.72-0.42 3.12-1.25 4.15C414.66 702.59 414.37 702.72 414.07 702.72z"/>
    <path d="M453.34 735.32c-5.05 0-9.53-0.41-13.33-1.21-3.83-0.81-7.28-2.09-10.27-3.8-6.59-3.81-9.93-9.37-9.93-16.52 0-6.07 3.04-11.56 9.04-16.31 1.43-1.12 2.95-2.15 4.53-3.08-1.85-1.99-2.79-4.53-2.79-7.56 0-4.9 2.2-9.12 6.56-12.59-6.74-3.03-11.28-8.1-13.5-15.08-0.76-2.49-1.14-5.29-1.14-8.32 0-3.05 0.48-5.97 1.44-8.67 0.95-2.7 2.28-5.15 3.94-7.28 1.66-2.12 3.61-4 5.82-5.59 2.19-1.58 4.57-2.91 7.06-3.96 4.89-2.09 10.09-3.16 15.47-3.16 8.2 0 14.97 1.94 20.16 5.78 0.31-1.58 0.46-3.2 0.46-4.84 0-2.05-0.44-3.71-1.3-4.95-0.26-0.37-0.23-0.87 0.06-1.22 1.86-2.19 4.62-3.3 8.21-3.3 2.13 0 3.87 0.61 5.17 1.8 2.33 2.01 3.53 4.11 3.53 6.22 0 1.94-0.31 3.67-0.91 5.13-0.59 1.42-1.36 2.78-2.31 4.04-1.48 2.08-3.39 4.01-5.68 5.74 1.52 3.16 2.29 6.8 2.29 10.83 0 4.36-0.98 8.46-2.9 12.2-1.91 3.72-4.52 6.93-7.73 9.53-6.57 5.3-14.77 7.99-24.37 7.99-1.19 0-2.64-0.09-4.31-0.27-1.21 1.3-1.82 2.54-1.82 3.7 0 1.25 0.33 2.15 1.01 2.75 0.78 0.69 1.84 1.24 3.15 1.62 2.1 0.57 4.5 0.86 7.1 0.86h5.52c14.24 0 23.78 3.52 28.36 10.46 1.73 2.64 2.6 5.88 2.6 9.63 0 3.69-0.63 6.99-1.88 9.81-1.24 2.79-2.93 5.29-5.01 7.44-2.07 2.13-4.49 3.99-7.22 5.53-2.7 1.52-5.59 2.78-8.59 3.74C463.97 734.33 458.43 735.32 453.34 735.32zM443.33 699.46c-5.05 3.53-7.6 7.53-7.6 11.88 0 3.79 2.2 6.62 6.72 8.65 3.75 1.73 8.45 2.61 13.96 2.61 5.03 0 9.74-0.84 14.01-2.5 5.4-2.12 8.02-5.44 8.02-10.17 0-6.28-5.15-9.33-15.74-9.33l-5.7 0.06C451.36 700.67 446.77 700.26 443.33 699.46zM453.34 633.05c-6.82 0-11.11 2.68-13.11 8.19-0.68 1.89-1.03 4.28-1.03 7.1 0 2.82 0.42 5.38 1.25 7.61 0.82 2.21 1.96 4.04 3.36 5.45 1.41 1.41 3.05 2.47 4.87 3.14 1.84 0.68 3.85 1.03 5.97 1.03 2.13 0 4.16-0.31 6.05-0.91 1.86-0.6 3.48-1.48 4.82-2.63 2.92-2.48 4.33-5.92 4.33-10.53 0-5.14-1.33-9.46-3.96-12.86C462.91 634.88 458.8 633.05 453.34 633.05z"/>
    <path d="M537.25 702.72c-0.08 0-0.15-0.01-0.23-0.03-0.82-0.19-2.12-0.29-3.87-0.29h-20.47c-7.22 0-10.88-1.85-10.88-5.49 0-1.76 0.42-3.18 1.25-4.22 0.19-0.24 0.48-0.38 0.78-0.38 0.11 0 0.21 0.02 0.32 0.05 0.92 0.31 1.76 0.46 2.51 0.46 1.49 0 2.59-0.38 3.36-1.17 1.02-1.04 1.52-2.85 1.48-5.38v-43c0-3.45-0.58-4.99-1.07-5.68-0.63-0.89-1.86-1.34-3.64-1.34-1.48 0-2.82 0.18-4.01 0.54-0.06 0.02-0.12 0.03-0.18 0.04-0.09 0.01-0.17 0.01-0.25 0.01-0.83 0-1.93-0.44-2.49-2.55-0.38-1.46-0.15-2.77 0.67-3.9 0.71-0.97 1.76-1.95 3.21-2.98 1.4-1 2.96-1.88 4.63-2.63 3.6-1.71 6.71-2.59 9.2-2.59 2.56 0 4.44 0.38 5.75 1.17 1.29 0.78 2.29 1.84 2.97 3.16 1.03 2.06 1.52 5.19 1.52 9.57v51.26c0.11 2.9 1.08 4.62 2.96 5.21 0.6 0.2 1.36 0.39 2.25 0.55 0.98 0.18 1.87 0.39 2.66 0.64 0.85 0.27 1.52 0.57 2.04 0.94 1.02 0.78 1.52 1.95 1.52 3.52 0 1.77-0.4 3.16-1.18 4.15C537.85 702.58 537.56 702.72 537.25 702.72zM516.6 612.26c-1.57 0-3.03-0.25-4.36-0.73-1.34-0.49-2.53-1.23-3.52-2.17-2.08-1.98-3.13-4.67-3.13-7.97 0-3.19 1.23-5.92 3.67-8.12 2.31-2.17 5.13-3.27 8.37-3.27 3.25 0 5.91 1 7.89 2.99 1.98 1.98 2.99 4.68 2.99 8.02 0 3.18-1.19 5.91-3.52 8.11C522.69 611.2 519.88 612.26 516.6 612.26z"/>
    <path d="M570.97 703.62c-3.45 0-6.3-0.2-8.48-0.59-2.29-0.41-4.27-1.25-5.89-2.5-3.32-2.58-5.01-7.27-5.01-13.94v-49.49h-5.35c-1.67 0-2.91-0.57-3.71-1.71-1.15-1.48-1.72-2.77-1.72-3.91 0-2.01 0.63-3.18 1.86-3.48 6.52-1.11 10.99-5.84 13.71-14.47 0.79-2.62 1.43-5.78 1.89-9.39 0.06-0.44 0.39-0.79 0.83-0.86 2.12-0.35 3.7-0.52 4.82-0.52 1.38 0 2.57 0.68 3.54 2.02 0.9 1.24 1.34 2.69 1.31 4.32-0.02 1.42-0.05 2.75-0.1 4-0.04 1.24-0.08 2.59-0.13 4.04l-0.23 7.95h21.17c0.36 0 0.69 0.19 0.87 0.51 0.64 1.13 0.96 2.36 0.96 3.64v1.99c0 2.17-1.14 3.94-3.38 5.26-2.07 1.22-4.39 1.84-6.89 1.84-2.38 0-4.04-0.03-5.07-0.1-1.01-0.06-2-0.14-2.94-0.23l-2.87-0.39c-0.62-0.05-1.3-0.11-2.01-0.17l-0.06 20.22-0.06 16.88c0 9 0.62 11.56 0.98 12.28 0.59 1.17 1.25 1.86 1.95 2.06 0.89 0.25 2.07 0.38 3.51 0.38 1.47 0 2.83-0.11 4.02-0.34 1.2-0.22 2.35-0.52 3.42-0.89 1.08-0.37 2.12-0.79 3.12-1.25l3.17-1.36c0.26-0.09 0.47-0.13 0.68-0.13 1.43 0 2.42 1.62 3.04 2.84 0.32 0.59 0.5 1.31 0.5 2.09 0 0.79-0.29 1.73-0.88 2.87-0.58 1.11-1.63 2.31-3.22 3.67-1.53 1.31-3.34 2.49-5.37 3.5C578.54 702.48 574.52 703.62 570.97 703.62z"/>
  </g>
</svg>
