<?xml version="1.0" encoding="UTF-8" standalone="no"?>
<!-- Created with Inkscape (http://www.inkscape.org/) -->

<svg
   xmlns:dc="http://purl.org/dc/elements/1.1/"
   xmlns:cc="http://creativecommons.org/ns#"
   xmlns:rdf="http://www.w3.org/1999/02/22-rdf-syntax-ns#"
   xmlns:svg="http://www.w3.org/2000/svg"
   xmlns="http://www.w3.org/2000/svg"
   xmlns:sodipodi="http://sodipodi.sourceforge.net/DTD/sodipodi-0.dtd"
   xmlns:inkscape="http://www.inkscape.org/namespaces/inkscape"
   width="744.09448819"
   height="1052.3622047"
   id="svg4526"
   version="1.1"
   inkscape:version="0.48.4 r9939"
   sodipodi:docname="shitgit.svg">
  <defs
     id="defs4528">
    <clipPath
       clipPathUnits="userSpaceOnUse"
       id="clipPath5139">
      <rect
         style="fill:#5f3816;fill-opacity:1;stroke:#000000;stroke-width:5;stroke-miterlimit:4;stroke-opacity:0.94520545;stroke-dasharray:none"
         id="rect5141"
         width="358.57144"
         height="290"
         x="242.85713"
         y="-10.494956" />
    </clipPath>
  </defs>
  <sodipodi:namedview
     id="base"
     pagecolor="#ffffff"
     bordercolor="#666666"
     borderopacity="1.0"
     inkscape:pageopacity="0.0"
     inkscape:pageshadow="2"
     inkscape:zoom="0.49497475"
     inkscape:cx="441.63948"
     inkscape:cy="565.88454"
     inkscape:document-units="px"
     inkscape:current-layer="g5186"
     showgrid="false"
     inkscape:window-width="1309"
     inkscape:window-height="744"
     inkscape:window-x="1337"
     inkscape:window-y="130"
     inkscape:window-maximized="1"
     showguides="true"
     inkscape:guide-bbox="true"
     inkscape:object-paths="true"
     inkscape:snap-nodes="false" />
  <metadata
     id="metadata4531">
    <rdf:RDF>
      <cc:Work
         rdf:about="">
        <dc:format>image/svg+xml</dc:format>
        <dc:type
           rdf:resource="http://purl.org/dc/dcmitype/StillImage" />
        <dc:title></dc:title>
      </cc:Work>
    </rdf:RDF>
  </metadata>
  <g
     inkscape:label="Layer 1"
     inkscape:groupmode="layer"
     id="layer1">
    <g
       id="g5186">
      <path
         sodipodi:nodetypes="cccc"
         inkscape:connector-curvature="0"
         id="path5143-7"
         d="m 303.51408,212.67308 c 78.81904,-25.895 58.26028,-72.18746 23.40748,-121.413759 119.01599,48.643339 57.69908,147.698169 27.96511,163.553729 z"
         style="fill:#000000;fill-opacity:1;stroke:none" />
      <path
         sodipodi:nodetypes="ccccccc"
         inkscape:connector-curvature="0"
         id="path4574-6"
         d="M 273.21965,94.826565 C 118.78639,111.57609 110.40749,240.94573 184.31337,271.84302 c -37.01675,-15.85511 -48.32093,-38.21921 -49.788,-61.85654 -79.209133,43.36791 -24.51921,129.34598 15.23771,138.51921 3.67482,1.82516 -44.03899,-0.28882 -61.992873,-80.02435 C -30.151813,442.7804 372.15456,476.09812 352.49292,317.12582 355.9775,192.90567 198.27741,232.85392 273.21965,94.826565 z"
         style="fill:#000000;fill-opacity:1;stroke:none" />
      <path
         sodipodi:nodetypes="cccc"
         inkscape:connector-curvature="0"
         id="path5143-5"
         d="M 129.52405,200.16459 C 51.309091,181.47898 69.764141,135.71078 102.1238,86.047181 -12.760988,141.59894 50.980953,231.46818 80.710371,244.3281 z"
         style="fill:#000000;fill-opacity:1;stroke:none" />
      <text
         xml:space="preserve"
         style="font-size:74.48288727px;font-style:normal;font-weight:normal;line-height:125%;letter-spacing:0px;word-spacing:0px;fill:#000000;fill-opacity:1;stroke:none;font-family:Sans"
         x="488.55594"
         y="403.42923"
         id="text5548"
         sodipodi:linespacing="125%"><tspan
           sodipodi:role="line"
           id="tspan5550"
           x="488.55594"
           y="403.42923"
           style="font-style:normal;font-variant:normal;font-weight:normal;font-stretch:normal;font-family:Ubuntu;-inkscape-font-specification:Ubuntu"><tspan
             style="fill:#1393d5;fill-opacity:1"
             id="tspan5552">bull</tspan><tspan
             style="font-weight:500;-inkscape-font-specification:Ubuntu Medium"
             id="tspan5556">git</tspan></tspan></text>
      <path
         sodipodi:nodetypes="cccc"
         inkscape:connector-curvature="0"
         id="path5143-7-1-2"
         d="m 78.216389,737.26401 c 17.465456,-4.89678 13.017966,-13.94052 5.418589,-23.58072 26.193882,9.67783 12.445917,28.84028 5.844778,31.87183 z"
         style="fill:#000000;fill-opacity:1;stroke:none" />
      <path
         sodipodi:nodetypes="ccccccccc"
         inkscape:connector-curvature="0"
         id="path4574-6-4-1"
         d="m 87.204579,763.13568 c 12.151236,-25.08201 -26.151782,-16.78856 -20.914989,-40.0225 -26.615122,3.95395 -24.270131,30.81805 -7.869942,37.49052 -8.347504,-3.60239 -9.38014,-7.94988 -14.918215,-13.06505 -19.719012,4.61428 -11.464665,23.64927 4.713462,31.60604 -3.652513,-1.15644 -8.012755,-1.86695 -18.534211,-15.34813 -14.143419,7.99465 -6.813216,42.16412 40.223824,38.587 11.647266,-2.72864 29.414817,-8.60157 28.790417,-30.40419 -0.27972,-6.07602 -7.53112,-21.86786 -11.490346,-8.84369 z"
         style="fill:#000000;fill-opacity:1;stroke:none" />
      <path
         sodipodi:nodetypes="cccc"
         inkscape:connector-curvature="0"
         id="path5143-5-1-2"
         d="m 45.391598,736.4121 c -17.605943,-2.09709 -14.55929,-11.3165 -8.542054,-21.56034 -24.028262,12.98799 -8.032646,29.14747 -1.213564,31.05922 z"
         style="fill:#000000;fill-opacity:1;stroke:none" />
      <text
         xml:space="preserve"
         style="font-size:84.67150116px;font-style:normal;font-weight:normal;line-height:125%;letter-spacing:0px;word-spacing:0px;fill:#000000;fill-opacity:1;stroke:none;font-family:Sans"
         x="115.64634"
         y="789.03796"
         id="text5548-1"
         sodipodi:linespacing="125%"><tspan
           sodipodi:role="line"
           id="tspan5550-8"
           x="115.64634"
           y="789.03796"
           style="font-style:normal;font-variant:normal;font-weight:normal;font-stretch:normal;font-family:Ubuntu;-inkscape-font-specification:Ubuntu"><tspan
             style="font-style:normal;font-variant:normal;font-weight:normal;font-stretch:normal;fill:#1393d5;fill-opacity:1;font-family:Ubuntu;-inkscape-font-specification:Ubuntu"
             id="tspan5552-4">bull</tspan><tspan
             style="font-weight:500;-inkscape-font-specification:Ubuntu Medium"
             id="tspan5594">git</tspan></tspan></text>
      <path
         sodipodi:nodetypes="cccc"
         inkscape:connector-curvature="0"
         id="path5143-7-1-2-2"
         d="m 622.26971,681.45857 c 68.94634,-19.33047 51.38946,-55.03134 21.39033,-93.08683 103.40247,38.20399 49.13126,113.84937 23.07272,125.81667 z"
         style="fill:#000000;fill-opacity:1;stroke:none" />
      <path
         sodipodi:nodetypes="ccccccccc"
         inkscape:connector-curvature="0"
         id="path4574-6-4-1-8"
         d="M 657.75135,783.58911 C 705.7193,684.57578 554.51505,717.3149 575.18771,625.59699 470.12234,641.20554 479.37939,747.25377 544.12048,773.59387 511.16802,759.37314 507.09161,742.2111 485.2296,722.01853 c -77.8424,18.21524 -45.25769,93.35743 18.60678,124.76742 -14.41859,-4.56516 -31.631,-7.36993 -73.1653,-60.58799 -55.83231,31.55953 -26.89574,166.44626 158.78682,152.32536 45.97853,-10.7716 116.11736,-33.95542 113.65248,-120.02305 -1.10422,-23.9856 -29.72966,-86.32515 -45.35903,-34.91116 z"
         style="fill:#000000;fill-opacity:1;stroke:none" />
      <path
         sodipodi:nodetypes="cccc"
         inkscape:connector-curvature="0"
         id="path5143-5-1-2-6"
         d="m 492.69119,678.09558 c -69.5009,-8.27846 -57.47399,-44.67283 -33.72045,-85.11122 -94.85353,51.27115 -31.70954,115.06203 -4.79065,122.60883 z"
         style="fill:#000000;fill-opacity:1;stroke:none" />
      <path
         sodipodi:nodetypes="cccc"
         inkscape:connector-curvature="0"
         id="path5143-7-9"
         d="m 460.76311,362.41864 c 20.82494,-6.84177 15.39307,-19.07279 6.18454,-32.07897 31.44545,12.85215 15.24479,39.02363 7.38872,43.21286 z"
         style="fill:#000000;fill-opacity:1;stroke:none" />
      <path
         sodipodi:nodetypes="ccccccc"
         inkscape:connector-curvature="0"
         id="path4574-6-11"
         d="m 452.75896,331.28218 c -40.80312,4.42542 -43.01693,38.60644 -23.4901,46.76987 -9.78027,-4.18911 -12.76697,-10.09797 -13.15459,-16.34324 -20.928,11.45832 -6.47827,34.17476 4.02598,36.59844 0.97094,0.48223 -11.63563,-0.0763 -16.37926,-21.1434 -31.15641,46.05191 75.13776,54.85485 69.94292,12.85246 0.92067,-32.82045 -40.74559,-22.26565 -20.94495,-58.73413 z"
         style="fill:#000000;fill-opacity:1;stroke:none" />
      <path
         sodipodi:nodetypes="cccc"
         inkscape:connector-curvature="0"
         id="path5143-5-5"
         d="m 414.79286,359.11375 c -20.66533,-4.93696 -15.78929,-17.02947 -7.23948,-30.15119 -30.35393,14.67744 -13.51255,38.42197 -5.65768,41.81972 z"
         style="fill:#000000;fill-opacity:1;stroke:none" />
    </g>
  </g>
</svg>
